<?xml version="1.0" standalone="no"?>
 <!DOCTYPE svg PUBLIC "-//W3C//DTD SVG 1.1//EN" 
 "http://www.w3.org/Graphics/SVG/1.1/DTD/svg11.dtd"> 
<svg
  xmlns:svg="http://www.w3.org/2000/svg"
  xmlns="http://www.w3.org/2000/svg"
  xmlns:xlink="http://www.w3.org/1999/xlink"
  version="1.1"
  width="233.6800mm" height="53.3400mm" viewBox="0.0000 0.0000 233.6800 53.3400">
<title>SVG Image created as jack_panel_back.svg date 2023/06/18 17:19:54 </title>
  <desc>Image generated by PCBNEW </desc>
<g style="fill:#000000; fill-opacity:1.0000;stroke:#000000; stroke-opacity:1.0000;
stroke-linecap:round; stroke-linejoin:round;"
 transform="translate(0 0) scale(1 1)">
</g>
<g style="fill:#000000; fill-opacity:0.0; 
stroke:#000000; stroke-width:0.0000; stroke-opacity:1; 
stroke-linecap:round; stroke-linejoin:round;">
</g>
<g style="fill:#E8B2A7; fill-opacity:0.0; 
stroke:#E8B2A7; stroke-width:0.0000; stroke-opacity:1; 
stroke-linecap:round; stroke-linejoin:round;">
</g>
<g style="fill:#E8B2A7; fill-opacity:0.0; 
stroke:#E8B2A7; stroke-width:0.1500; stroke-opacity:1; 
stroke-linecap:round; stroke-linejoin:round;">
<text x="208.2800" y="41.9100"
transform="scale(-1 1) translate(-416.560000 0)"
textLength="10.4607" font-size="1.3333" lengthAdjust="spacingAndGlyphs"
text-anchor="start" opacity="0">JLCJLCJLCJLC</text>
<g class="stroked-text"><desc>JLCJLCJLCJLC</desc>
<path d="M208.9025 40.7798
L208.9025 41.4941
" />
<path d="M208.9025 41.4941
L208.8549 41.6370
" />
<path d="M208.8549 41.6370
L208.7596 41.7322
" />
<path d="M208.7596 41.7322
L208.6168 41.7798
" />
<path d="M208.6168 41.7798
L208.5215 41.7798
" />
<path d="M209.8549 41.7798
L209.3787 41.7798
" />
<path d="M209.3787 41.7798
L209.3787 40.7798
" />
<path d="M210.7596 41.6846
L210.7120 41.7322
" />
<path d="M210.7120 41.7322
L210.5692 41.7798
" />
<path d="M210.5692 41.7798
L210.4739 41.7798
" />
<path d="M210.4739 41.7798
L210.3311 41.7322
" />
<path d="M210.3311 41.7322
L210.2358 41.6370
" />
<path d="M210.2358 41.6370
L210.1882 41.5417
" />
<path d="M210.1882 41.5417
L210.1406 41.3512
" />
<path d="M210.1406 41.3512
L210.1406 41.2084
" />
<path d="M210.1406 41.2084
L210.1882 41.0179
" />
<path d="M210.1882 41.0179
L210.2358 40.9227
" />
<path d="M210.2358 40.9227
L210.3311 40.8274
" />
<path d="M210.3311 40.8274
L210.4739 40.7798
" />
<path d="M210.4739 40.7798
L210.5692 40.7798
" />
<path d="M210.5692 40.7798
L210.7120 40.8274
" />
<path d="M210.7120 40.8274
L210.7596 40.8751
" />
<path d="M211.4739 40.7798
L211.4739 41.4941
" />
<path d="M211.4739 41.4941
L211.4263 41.6370
" />
<path d="M211.4263 41.6370
L211.3311 41.7322
" />
<path d="M211.3311 41.7322
L211.1882 41.7798
" />
<path d="M211.1882 41.7798
L211.0930 41.7798
" />
<path d="M212.4263 41.7798
L211.9501 41.7798
" />
<path d="M211.9501 41.7798
L211.9501 40.7798
" />
<path d="M213.3311 41.6846
L213.2834 41.7322
" />
<path d="M213.2834 41.7322
L213.1406 41.7798
" />
<path d="M213.1406 41.7798
L213.0454 41.7798
" />
<path d="M213.0454 41.7798
L212.9025 41.7322
" />
<path d="M212.9025 41.7322
L212.8073 41.6370
" />
<path d="M212.8073 41.6370
L212.7596 41.5417
" />
<path d="M212.7596 41.5417
L212.7120 41.3512
" />
<path d="M212.7120 41.3512
L212.7120 41.2084
" />
<path d="M212.7120 41.2084
L212.7596 41.0179
" />
<path d="M212.7596 41.0179
L212.8073 40.9227
" />
<path d="M212.8073 40.9227
L212.9025 40.8274
" />
<path d="M212.9025 40.8274
L213.0454 40.7798
" />
<path d="M213.0454 40.7798
L213.1406 40.7798
" />
<path d="M213.1406 40.7798
L213.2834 40.8274
" />
<path d="M213.2834 40.8274
L213.3311 40.8751
" />
<path d="M214.0454 40.7798
L214.0454 41.4941
" />
<path d="M214.0454 41.4941
L213.9977 41.6370
" />
<path d="M213.9977 41.6370
L213.9025 41.7322
" />
<path d="M213.9025 41.7322
L213.7596 41.7798
" />
<path d="M213.7596 41.7798
L213.6644 41.7798
" />
<path d="M214.9977 41.7798
L214.5215 41.7798
" />
<path d="M214.5215 41.7798
L214.5215 40.7798
" />
<path d="M215.9025 41.6846
L215.8549 41.7322
" />
<path d="M215.8549 41.7322
L215.7120 41.7798
" />
<path d="M215.7120 41.7798
L215.6168 41.7798
" />
<path d="M215.6168 41.7798
L215.4739 41.7322
" />
<path d="M215.4739 41.7322
L215.3787 41.6370
" />
<path d="M215.3787 41.6370
L215.3311 41.5417
" />
<path d="M215.3311 41.5417
L215.2834 41.3512
" />
<path d="M215.2834 41.3512
L215.2834 41.2084
" />
<path d="M215.2834 41.2084
L215.3311 41.0179
" />
<path d="M215.3311 41.0179
L215.3787 40.9227
" />
<path d="M215.3787 40.9227
L215.4739 40.8274
" />
<path d="M215.4739 40.8274
L215.6168 40.7798
" />
<path d="M215.6168 40.7798
L215.7120 40.7798
" />
<path d="M215.7120 40.7798
L215.8549 40.8274
" />
<path d="M215.8549 40.8274
L215.9025 40.8751
" />
<path d="M216.6168 40.7798
L216.6168 41.4941
" />
<path d="M216.6168 41.4941
L216.5692 41.6370
" />
<path d="M216.5692 41.6370
L216.4739 41.7322
" />
<path d="M216.4739 41.7322
L216.3311 41.7798
" />
<path d="M216.3311 41.7798
L216.2358 41.7798
" />
<path d="M217.5692 41.7798
L217.0930 41.7798
" />
<path d="M217.0930 41.7798
L217.0930 40.7798
" />
<path d="M218.4739 41.6846
L218.4263 41.7322
" />
<path d="M218.4263 41.7322
L218.2834 41.7798
" />
<path d="M218.2834 41.7798
L218.1882 41.7798
" />
<path d="M218.1882 41.7798
L218.0454 41.7322
" />
<path d="M218.0454 41.7322
L217.9501 41.6370
" />
<path d="M217.9501 41.6370
L217.9025 41.5417
" />
<path d="M217.9025 41.5417
L217.8549 41.3512
" />
<path d="M217.8549 41.3512
L217.8549 41.2084
" />
<path d="M217.8549 41.2084
L217.9025 41.0179
" />
<path d="M217.9025 41.0179
L217.9501 40.9227
" />
<path d="M217.9501 40.9227
L218.0454 40.8274
" />
<path d="M218.0454 40.8274
L218.1882 40.7798
" />
<path d="M218.1882 40.7798
L218.2834 40.7798
" />
<path d="M218.2834 40.7798
L218.4263 40.8274
" />
<path d="M218.4263 40.8274
L218.4739 40.8751
" />
</g><g >
</g>
<g >
</g>
<g >
</g>
<g >
</g>
</g>
<g style="fill:#FFFFFF; fill-opacity:0.0; 
stroke:#FFFFFF; stroke-width:0.1500; stroke-opacity:1; 
stroke-linecap:round; stroke-linejoin:round;">
</g>
<g style="fill:#FFFFFF; fill-opacity:1.0000; 
stroke:#FFFFFF; stroke-width:0.0000; stroke-opacity:1; 
stroke-linecap:round; stroke-linejoin:round;">
<circle cx="215.3150" cy="33.0200" r="0.3000" /> 
</g>
<g style="fill:#FFFFFF; fill-opacity:1.0000; 
stroke:#FFFFFF; stroke-width:0.0212; stroke-opacity:1; 
stroke-linecap:round; stroke-linejoin:round;">
</g>
<g style="fill:#FFFFFF; fill-opacity:1.0000; 
stroke:#FFFFFF; stroke-width:0.0000; stroke-opacity:1; 
stroke-linecap:round; stroke-linejoin:round;">
<circle cx="214.3704" cy="30.7396" r="0.3000" /> 
</g>
<g style="fill:#FFFFFF; fill-opacity:1.0000; 
stroke:#FFFFFF; stroke-width:0.0212; stroke-opacity:1; 
stroke-linecap:round; stroke-linejoin:round;">
</g>
<g style="fill:#FFFFFF; fill-opacity:1.0000; 
stroke:#FFFFFF; stroke-width:0.0000; stroke-opacity:1; 
stroke-linecap:round; stroke-linejoin:round;">
<circle cx="214.3704" cy="35.3004" r="0.3000" /> 
</g>
<g style="fill:#FFFFFF; fill-opacity:1.0000; 
stroke:#FFFFFF; stroke-width:0.0212; stroke-opacity:1; 
stroke-linecap:round; stroke-linejoin:round;">
</g>
<g style="fill:#FFFFFF; fill-opacity:1.0000; 
stroke:#FFFFFF; stroke-width:0.0000; stroke-opacity:1; 
stroke-linecap:round; stroke-linejoin:round;">
<circle cx="212.0900" cy="29.7950" r="0.3000" /> 
</g>
<g style="fill:#FFFFFF; fill-opacity:1.0000; 
stroke:#FFFFFF; stroke-width:0.0212; stroke-opacity:1; 
stroke-linecap:round; stroke-linejoin:round;">
</g>
<g style="fill:#FFFFFF; fill-opacity:1.0000; 
stroke:#FFFFFF; stroke-width:0.0000; stroke-opacity:1; 
stroke-linecap:round; stroke-linejoin:round;">
<circle cx="212.0900" cy="33.0200" r="2.1500" /> 
</g>
<g style="fill:#FFFFFF; fill-opacity:1.0000; 
stroke:#FFFFFF; stroke-width:0.0212; stroke-opacity:1; 
stroke-linecap:round; stroke-linejoin:round;">
</g>
<g style="fill:#FFFFFF; fill-opacity:1.0000; 
stroke:#FFFFFF; stroke-width:0.0000; stroke-opacity:1; 
stroke-linecap:round; stroke-linejoin:round;">
<circle cx="212.0900" cy="36.2450" r="0.3000" /> 
</g>
<g style="fill:#FFFFFF; fill-opacity:1.0000; 
stroke:#FFFFFF; stroke-width:0.0212; stroke-opacity:1; 
stroke-linecap:round; stroke-linejoin:round;">
</g>
<g style="fill:#FFFFFF; fill-opacity:1.0000; 
stroke:#FFFFFF; stroke-width:0.0000; stroke-opacity:1; 
stroke-linecap:round; stroke-linejoin:round;">
<circle cx="209.8096" cy="30.7396" r="0.3000" /> 
</g>
<g style="fill:#FFFFFF; fill-opacity:1.0000; 
stroke:#FFFFFF; stroke-width:0.0212; stroke-opacity:1; 
stroke-linecap:round; stroke-linejoin:round;">
</g>
<g style="fill:#FFFFFF; fill-opacity:1.0000; 
stroke:#FFFFFF; stroke-width:0.0000; stroke-opacity:1; 
stroke-linecap:round; stroke-linejoin:round;">
<circle cx="209.8096" cy="35.3004" r="0.3000" /> 
</g>
<g style="fill:#FFFFFF; fill-opacity:1.0000; 
stroke:#FFFFFF; stroke-width:0.0212; stroke-opacity:1; 
stroke-linecap:round; stroke-linejoin:round;">
</g>
<g style="fill:#FFFFFF; fill-opacity:1.0000; 
stroke:#FFFFFF; stroke-width:0.0000; stroke-opacity:1; 
stroke-linecap:round; stroke-linejoin:round;">
<circle cx="208.8650" cy="33.0200" r="0.3000" /> 
</g>
<g style="fill:#FFFFFF; fill-opacity:1.0000; 
stroke:#FFFFFF; stroke-width:0.0212; stroke-opacity:1; 
stroke-linecap:round; stroke-linejoin:round;">
</g>
<g style="fill:#000000; fill-opacity:1.0000; 
stroke:#000000; stroke-width:0.0212; stroke-opacity:1; 
stroke-linecap:round; stroke-linejoin:round;">
<g >
</g>
<g style="fill:#4D7FC4; fill-opacity:1.0000; 
stroke:#4D7FC4; stroke-width:0.0212; stroke-opacity:1; 
stroke-linecap:round; stroke-linejoin:round;">
</g>
<g style="fill:#4D7FC4; fill-opacity:1.0000; 
stroke:#4D7FC4; stroke-width:0.0000; stroke-opacity:1; 
stroke-linecap:round; stroke-linejoin:round;">
<circle cx="215.3150" cy="33.0200" r="0.4500" /> 
</g>
<g style="fill:#4D7FC4; fill-opacity:1.0000; 
stroke:#4D7FC4; stroke-width:0.0212; stroke-opacity:1; 
stroke-linecap:round; stroke-linejoin:round;">
</g>
<g style="fill:#4D7FC4; fill-opacity:1.0000; 
stroke:#4D7FC4; stroke-width:0.0000; stroke-opacity:1; 
stroke-linecap:round; stroke-linejoin:round;">
<circle cx="214.3704" cy="30.7396" r="0.4500" /> 
</g>
<g style="fill:#4D7FC4; fill-opacity:1.0000; 
stroke:#4D7FC4; stroke-width:0.0212; stroke-opacity:1; 
stroke-linecap:round; stroke-linejoin:round;">
</g>
<g style="fill:#4D7FC4; fill-opacity:1.0000; 
stroke:#4D7FC4; stroke-width:0.0000; stroke-opacity:1; 
stroke-linecap:round; stroke-linejoin:round;">
<circle cx="214.3704" cy="35.3004" r="0.4500" /> 
</g>
<g style="fill:#4D7FC4; fill-opacity:1.0000; 
stroke:#4D7FC4; stroke-width:0.0212; stroke-opacity:1; 
stroke-linecap:round; stroke-linejoin:round;">
</g>
<g style="fill:#4D7FC4; fill-opacity:1.0000; 
stroke:#4D7FC4; stroke-width:0.0000; stroke-opacity:1; 
stroke-linecap:round; stroke-linejoin:round;">
<circle cx="212.0900" cy="29.7950" r="0.4500" /> 
</g>
<g style="fill:#4D7FC4; fill-opacity:1.0000; 
stroke:#4D7FC4; stroke-width:0.0212; stroke-opacity:1; 
stroke-linecap:round; stroke-linejoin:round;">
</g>
<g style="fill:#4D7FC4; fill-opacity:1.0000; 
stroke:#4D7FC4; stroke-width:0.0000; stroke-opacity:1; 
stroke-linecap:round; stroke-linejoin:round;">
<circle cx="212.0900" cy="33.0200" r="4.3000" /> 
</g>
<g style="fill:#4D7FC4; fill-opacity:1.0000; 
stroke:#4D7FC4; stroke-width:0.0212; stroke-opacity:1; 
stroke-linecap:round; stroke-linejoin:round;">
</g>
<g style="fill:#4D7FC4; fill-opacity:1.0000; 
stroke:#4D7FC4; stroke-width:0.0000; stroke-opacity:1; 
stroke-linecap:round; stroke-linejoin:round;">
<circle cx="212.0900" cy="36.2450" r="0.4500" /> 
</g>
<g style="fill:#4D7FC4; fill-opacity:1.0000; 
stroke:#4D7FC4; stroke-width:0.0212; stroke-opacity:1; 
stroke-linecap:round; stroke-linejoin:round;">
</g>
<g style="fill:#4D7FC4; fill-opacity:1.0000; 
stroke:#4D7FC4; stroke-width:0.0000; stroke-opacity:1; 
stroke-linecap:round; stroke-linejoin:round;">
<circle cx="209.8096" cy="30.7396" r="0.4500" /> 
</g>
<g style="fill:#4D7FC4; fill-opacity:1.0000; 
stroke:#4D7FC4; stroke-width:0.0212; stroke-opacity:1; 
stroke-linecap:round; stroke-linejoin:round;">
</g>
<g style="fill:#4D7FC4; fill-opacity:1.0000; 
stroke:#4D7FC4; stroke-width:0.0000; stroke-opacity:1; 
stroke-linecap:round; stroke-linejoin:round;">
<circle cx="209.8096" cy="35.3004" r="0.4500" /> 
</g>
<g style="fill:#4D7FC4; fill-opacity:1.0000; 
stroke:#4D7FC4; stroke-width:0.0212; stroke-opacity:1; 
stroke-linecap:round; stroke-linejoin:round;">
</g>
<g style="fill:#4D7FC4; fill-opacity:1.0000; 
stroke:#4D7FC4; stroke-width:0.0000; stroke-opacity:1; 
stroke-linecap:round; stroke-linejoin:round;">
<circle cx="208.8650" cy="33.0200" r="0.4500" /> 
</g>
<g style="fill:#4D7FC4; fill-opacity:1.0000; 
stroke:#4D7FC4; stroke-width:0.0212; stroke-opacity:1; 
stroke-linecap:round; stroke-linejoin:round;">
</g>
<g >
</g>
<g >
</g>
<g >
</g>
<g style="fill:#4D7FC4; fill-opacity:1.0000; 
stroke:#4D7FC4; stroke-width:0.0212; stroke-opacity:1; 
stroke-linecap:round; stroke-linejoin:round;">
<g >
</g>
<g style="fill:#4D7FC4; fill-opacity:1.0000; 
stroke:#4D7FC4; stroke-width:0.0000; stroke-opacity:1; 
stroke-linecap:round; stroke-linejoin:round;">
<path style="fill:#4D7FC4; fill-opacity:1.0000; 
stroke:#4D7FC4; stroke-width:0.0000; stroke-opacity:1; 
stroke-linecap:round; stroke-linejoin:round;fill-rule:evenodd;"
d="M 213.6650,34.4909
213.4500,34.6917
213.4255,34.7090
214.0751,35.3586
214.0665,35.3286
214.0769,35.2169
214.1269,35.1165
214.2098,35.0409
214.3143,35.0004
214.3982,35.0004
214.4299,35.0063
213.7769,34.3533
Z" /> 
<path style="fill:#4D7FC4; fill-opacity:1.0000; 
stroke:#4D7FC4; stroke-width:0.0000; stroke-opacity:1; 
stroke-linecap:round; stroke-linejoin:round;fill-rule:evenodd;"
d="M 209.7560,35.0004
209.8374,35.0004
209.9198,35.0158
210.0152,35.0749
210.0828,35.1644
210.1135,35.2723
210.1055,35.3580
210.7545,34.7090
210.7300,34.6917
210.5150,34.4909
210.4031,34.3533
Z" /> 
<path style="fill:#4D7FC4; fill-opacity:1.0000; 
stroke:#4D7FC4; stroke-width:0.0000; stroke-opacity:1; 
stroke-linecap:round; stroke-linejoin:round;fill-rule:evenodd;"
d="M 213.4255,31.3310
213.4500,31.3483
213.6650,31.5491
213.7769,31.6867
214.4240,31.0396
214.3426,31.0396
214.2602,31.0242
214.1648,30.9651
214.0972,30.8756
214.0665,30.7677
214.0745,30.6820
Z" /> 
<path style="fill:#4D7FC4; fill-opacity:1.0000; 
stroke:#4D7FC4; stroke-width:0.0000; stroke-opacity:1; 
stroke-linecap:round; stroke-linejoin:round;fill-rule:evenodd;"
d="M 210.1135,30.7114
210.1031,30.8231
210.0531,30.9235
209.9702,30.9991
209.8657,31.0396
209.7818,31.0396
209.7501,31.0337
210.4031,31.6867
210.5150,31.5491
210.7300,31.3483
210.7545,31.3310
210.1049,30.6814
Z" /> 
<path style="fill:#4D7FC4; fill-opacity:1.0000; 
stroke:#4D7FC4; stroke-width:0.0000; stroke-opacity:1; 
stroke-linecap:round; stroke-linejoin:round;fill-rule:evenodd;"
d="M 16.5077,11.5068
16.4961,11.5072
16.2572,11.5162
16.0328,11.5250
16.0238,11.5257
15.7815,11.5531
15.5478,11.5808
15.5394,11.5821
15.2990,11.6277
15.0686,11.6737
15.0608,11.6755
14.8241,11.7391
14.5980,11.8030
14.5907,11.8053
14.3591,11.8866
14.1387,11.9681
14.1322,11.9708
13.9081,12.0688
13.9059,12.0698
13.6935,12.1680
13.6875,12.1710
13.4714,12.2855
13.4689,12.2869
13.2650,12.4014
13.2596,12.4046
13.0732,12.5221
13.0528,12.5350
13.0498,12.5369
12.8556,12.6671
12.8510,12.6704
12.6544,12.8160
12.6513,12.8183
12.4894,12.9464
12.4679,12.9634
12.4638,12.9668
12.2788,13.1266
12.2755,13.1296
12.1042,13.2885
12.1007,13.2919
11.9281,13.4652
11.9247,13.4687
11.7849,13.6206
11.7664,13.6407
11.7635,13.6440
11.6044,13.8297
11.6010,13.8338
11.4567,14.0177
11.4543,14.0208
11.3096,14.2180
11.3062,14.2227
11.1769,14.4174
11.1750,14.4203
11.0454,14.6277
11.0422,14.6331
10.9405,14.8159
10.9286,14.8374
10.9271,14.8400
10.8597,14.9684
10.8135,15.0565
10.8105,15.0626
10.7132,15.2753
10.7121,15.2776
10.6151,15.5019
10.6124,15.5086
10.5318,15.7293
10.4514,15.9612
10.4491,15.9685
10.3861,16.1948
10.3235,16.4317
10.3217,16.4397
10.2766,16.6702
10.2320,16.9107
10.2307,16.9192
10.2039,17.1530
10.1775,17.3953
10.1769,17.4044
10.1685,17.6422
10.1606,17.8780
10.1605,17.8827
10.1607,17.9315
10.1605,17.9334
10.1605,36.9039
10.1606,36.9085
10.1700,37.1592
10.1788,37.3834
10.1795,37.3924
10.2069,37.6349
10.2346,37.8683
10.2359,37.8768
10.2815,38.1173
10.3275,38.3475
10.3293,38.3554
10.3929,38.5922
10.4568,38.8181
10.4591,38.8255
10.5240,39.0103
10.5404,39.0571
10.6219,39.2774
10.6246,39.2841
10.7226,39.5081
10.7237,39.5104
10.8218,39.7226
10.8248,39.7287
10.9393,39.9448
10.9408,39.9474
11.0552,40.1512
11.0584,40.1566
11.1889,40.3635
11.1908,40.3664
11.3209,40.5605
11.3242,40.5653
11.4698,40.7618
11.4722,40.7649
11.6172,40.9482
11.6206,40.9523
11.7805,41.1374
11.7834,41.1407
11.9423,41.3120
11.9457,41.3155
12.1190,41.4881
12.1225,41.4915
12.2945,41.6498
12.2978,41.6527
12.4835,41.8118
12.4876,41.8152
12.6715,41.9595
12.6746,41.9619
12.8718,42.1066
12.8765,42.1100
13.0712,42.2393
13.0741,42.2412
13.2815,42.3708
13.2869,42.3740
13.4911,42.4876
13.4938,42.4891
13.7104,42.6028
13.7164,42.6057
13.9290,42.7030
13.9314,42.7040
14.1557,42.8011
14.1624,42.8038
14.3831,42.8844
14.6150,42.9648
14.6223,42.9671
14.8485,43.0301
15.0856,43.0927
15.0935,43.0945
15.3239,43.1395
15.5646,43.1842
15.5731,43.1855
15.8066,43.2122
16.0491,43.2387
16.0582,43.2393
16.2955,43.2477
16.5318,43.2556
16.5365,43.2557
16.5853,43.2555
16.5872,43.2557
216.6597,43.2557
216.6643,43.2556
216.9150,43.2462
217.1392,43.2374
217.1482,43.2367
217.3907,43.2093
217.6241,43.1816
217.6326,43.1803
217.8731,43.1347
218.1033,43.0887
218.1112,43.0869
218.3480,43.0233
218.5739,42.9594
218.5813,42.9571
218.8129,42.8758
219.0332,42.7943
219.0399,42.7916
219.2639,42.6936
219.2662,42.6925
219.4784,42.5944
219.4845,42.5914
219.7006,42.4769
219.7032,42.4754
219.9070,42.3610
219.9123,42.3578
220.1193,42.2273
220.1222,42.2254
220.3163,42.0953
220.3211,42.0920
220.5176,41.9464
220.5207,41.9440
220.7040,41.7990
220.7081,41.7956
220.8932,41.6358
220.8965,41.6328
221.0678,41.4739
221.0713,41.4705
221.2439,41.2972
221.2473,41.2937
221.3251,41.2092
221.4056,41.1217
221.4085,41.1184
221.4749,41.0409
221.5676,40.9327
221.5710,40.9286
221.7153,40.7447
221.7177,40.7416
221.8624,40.5444
221.8658,40.5397
221.8851,40.5106
221.9952,40.3450
221.9970,40.3421
222.1266,40.1346
222.1298,40.1293
222.2434,39.9250
222.2449,39.9224
222.3586,39.7058
222.3615,39.6998
222.4588,39.4871
222.4598,39.4849
222.5569,39.2605
222.5596,39.2538
222.6402,39.0331
222.7206,38.8011
222.7229,38.7939
222.7858,38.5677
222.8485,38.3306
222.8503,38.3228
222.8953,38.0923
222.9003,38.0656
222.9400,37.8516
222.9413,37.8432
222.9680,37.6096
222.9945,37.3670
222.9951,37.3581
223.0035,37.1203
223.0065,37.0314
223.0114,36.8844
223.0115,36.8797
223.0114,36.8458
223.0115,36.8404
223.0115,33.0228
216.8947,33.0228
216.8756,33.4479
216.8751,33.4535
216.8180,33.8752
216.8170,33.8807
216.7223,34.2956
216.7208,34.3009
216.5893,34.7056
216.5874,34.7109
216.4201,35.1022
216.4177,35.1072
216.2160,35.4819
216.2132,35.4867
215.9787,35.8419
215.9755,35.8464
215.7101,36.1791
215.7065,36.1833
215.6578,36.2342
214.6658,35.2422
214.6743,35.2723
214.6640,35.3839
214.6140,35.4843
214.5311,35.5599
214.4265,35.6004
214.3426,35.6004
214.3109,35.5945
215.3031,36.5867
215.0879,36.7747
215.0835,36.7782
214.7392,37.0284
214.7346,37.0314
214.3692,37.2497
214.3644,37.2523
213.9809,37.4370
213.9758,37.4392
213.5774,37.5887
213.5721,37.5904
213.1619,37.7036
213.1564,37.7049
212.7377,37.7809
212.7322,37.7816
212.3083,37.8198
212.3028,37.8200
211.8772,37.8200
211.8717,37.8198
211.4478,37.7816
211.4423,37.7809
211.0236,37.7049
211.0181,37.7036
210.6079,37.5904
210.6026,37.5887
210.2042,37.4392
210.1991,37.4370
209.8156,37.2523
209.8108,37.2497
209.4454,37.0314
209.4408,37.0284
209.0965,36.7782
209.0921,36.7747
208.8769,36.5867
208.8769,36.5867
209.8631,35.6004
209.7818,35.6004
209.6993,35.5850
209.6040,35.5260
209.5364,35.4365
209.5057,35.3286
209.5136,35.2428
208.5222,36.2342
208.4735,36.1833
208.4699,36.1791
208.2045,35.8464
208.2013,35.8419
207.9668,35.4867
207.9640,35.4819
207.7623,35.1072
207.7599,35.1022
207.5926,34.7109
207.5907,34.7056
207.4592,34.3009
207.4577,34.2956
207.3630,33.8807
207.3620,33.8752
207.3049,33.4535
207.3044,33.4479
207.2853,33.0228
207.2853,33.0172
207.3044,32.5921
207.3049,32.5865
207.3620,32.1648
207.3630,32.1593
207.4577,31.7444
207.4592,31.7391
207.5907,31.3344
207.5926,31.3291
207.7599,30.9378
207.7623,30.9328
207.9640,30.5580
207.9668,30.5533
208.2013,30.1981
208.2045,30.1936
208.4699,29.8609
208.4735,29.8567
208.5222,29.8058
209.5142,30.7978
209.5057,30.7677
209.5160,30.6561
209.5660,30.5557
209.6489,30.4801
209.7535,30.4396
209.8374,30.4396
209.8691,30.4455
208.8769,29.4533
209.0921,29.2653
209.0965,29.2618
209.4408,29.0116
209.4454,29.0086
209.8108,28.7903
209.8156,28.7877
210.1991,28.6030
210.2042,28.6008
210.6026,28.4513
210.6079,28.4496
211.0181,28.3364
211.0236,28.3351
211.4423,28.2591
211.4478,28.2584
211.8717,28.2202
211.8772,28.2200
212.3028,28.2200
212.3083,28.2202
212.7322,28.2584
212.7377,28.2591
213.1564,28.3351
213.1619,28.3364
213.5721,28.4496
213.5774,28.4513
213.9758,28.6008
213.9809,28.6030
214.3644,28.7877
214.3692,28.7903
214.7346,29.0086
214.7392,29.0116
215.0835,29.2618
215.0879,29.2653
215.3031,29.4533
215.3031,29.4533
214.3169,30.4396
214.3982,30.4396
214.4807,30.4550
214.5760,30.5140
214.6436,30.6035
214.6743,30.7114
214.6664,30.7972
215.6578,29.8058
215.7065,29.8567
215.7101,29.8609
215.9755,30.1936
215.9787,30.1981
216.2132,30.5533
216.2160,30.5580
216.4177,30.9328
216.4201,30.9378
216.5874,31.3291
216.5893,31.3344
216.7208,31.7391
216.7223,31.7444
216.8170,32.1593
216.8180,32.1648
216.8751,32.5865
216.8756,32.5921
216.8947,33.0172
216.8947,33.0228
223.0115,33.0228
223.0115,27.3812
202.8880,27.3812
202.8879,27.3833
202.8681,27.9645
202.8681,27.9645
202.8680,27.9666
202.8678,27.9687
202.8678,27.9687
202.8223,28.4114
202.8081,28.5492
202.8077,28.5513
202.8077,28.5513
202.7090,29.1241
202.7086,29.1264
202.7081,29.1285
202.7081,29.1285
202.6289,29.4533
202.5699,29.6955
202.5693,29.6975
202.5693,29.6975
202.3934,30.2518
202.3933,30.2518
202.3927,30.2538
202.3919,30.2557
202.3919,30.2558
202.1786,30.7967
202.1786,30.7967
202.1778,30.7987
202.1769,30.8006
202.1769,30.8006
201.9971,31.1787
201.9263,31.3276
201.9252,31.3295
201.9252,31.3295
201.6735,31.7772
201.6392,31.8382
201.6381,31.8399
201.6380,31.8400
201.4215,32.1702
201.3180,32.3280
201.3167,32.3296
201.3167,32.3297
201.0021,32.7445
200.9641,32.7947
200.9627,32.7963
200.5805,33.2345
200.5805,33.2346
200.5791,33.2361
200.1649,33.6503
200.1634,33.6517
200.1633,33.6517
199.9940,33.7993
199.7235,34.0353
199.7218,34.0365
199.7218,34.0365
199.2684,34.3803
199.2568,34.3892
199.1016,34.4909
198.7688,34.7092
198.7688,34.7093
198.7670,34.7104
198.2564,34.9975
198.2545,34.9984
198.2545,34.9984
197.7294,35.2481
197.7294,35.2481
197.7275,35.2490
197.7255,35.2498
197.7255,35.2498
197.5223,35.3300
197.1826,35.4639
196.6243,35.6411
196.0552,35.7798
195.4780,35.8793
194.8954,35.9392
194.3100,35.9592
193.7246,35.9392
193.1420,35.8793
192.5648,35.7798
191.9957,35.6411
191.4374,35.4639
190.8925,35.2490
190.3636,34.9975
189.8530,34.7104
189.3632,34.3892
188.8965,34.0353
188.4551,33.6503
188.0409,33.2361
187.6559,32.7947
187.3020,32.3280
186.9808,31.8382
186.6937,31.3276
186.4422,30.7987
186.2273,30.2538
186.0501,29.6955
185.9114,29.1264
185.8119,28.5492
185.7520,27.9666
185.7320,27.3812
177.4880,27.3812
177.4879,27.3833
177.4681,27.9645
177.4681,27.9645
177.4680,27.9666
177.4678,27.9687
177.4678,27.9687
177.4223,28.4114
177.4081,28.5492
177.4077,28.5513
177.4077,28.5513
177.3090,29.1241
177.3086,29.1264
177.3081,29.1285
177.3081,29.1285
177.2289,29.4533
177.1699,29.6955
177.1693,29.6975
177.1693,29.6975
176.9934,30.2518
176.9933,30.2518
176.9927,30.2538
176.9919,30.2557
176.9919,30.2558
176.7786,30.7967
176.7786,30.7967
176.7778,30.7987
176.7769,30.8006
176.7769,30.8006
176.5971,31.1787
176.5263,31.3276
176.5252,31.3295
176.5252,31.3295
176.2735,31.7772
176.2392,31.8382
176.2381,31.8399
176.2380,31.8400
176.0215,32.1702
175.9180,32.3280
175.9167,32.3296
175.9167,32.3297
175.6021,32.7445
175.5641,32.7947
175.5627,32.7963
175.1805,33.2345
175.1805,33.2346
175.1791,33.2361
174.7649,33.6503
174.7634,33.6517
174.7633,33.6517
174.5940,33.7993
174.3235,34.0353
174.3218,34.0365
174.3218,34.0365
173.8684,34.3803
173.8568,34.3892
173.7016,34.4909
173.3688,34.7092
173.3688,34.7093
173.3670,34.7104
172.8564,34.9975
172.8545,34.9984
172.8545,34.9984
172.3294,35.2481
172.3294,35.2481
172.3275,35.2490
172.3255,35.2498
172.3255,35.2498
172.1223,35.3300
171.7826,35.4639
171.2243,35.6411
170.6552,35.7798
170.0780,35.8793
169.4954,35.9392
168.9100,35.9592
168.3246,35.9392
167.7420,35.8793
167.1648,35.7798
166.5957,35.6411
166.0374,35.4639
165.4925,35.2490
164.9636,34.9975
164.4530,34.7104
163.9632,34.3892
163.4965,34.0353
163.0551,33.6503
162.6409,33.2361
162.2559,32.7947
161.9020,32.3280
161.5808,31.8382
161.2937,31.3276
161.0839,30.8864
148.3414,30.8864
148.3219,31.3195
148.3215,31.3222
148.3215,31.3222
148.2927,31.5353
148.2927,31.5354
148.2926,31.5359
148.2641,31.7463
148.2637,31.7491
148.2631,31.7518
148.2631,31.7518
148.2146,31.9644
148.2146,31.9647
148.2137,31.9681
148.1997,32.0296
148.1673,32.1717
148.1664,32.1744
148.1664,32.1744
148.0981,32.3846
148.0981,32.3852
148.0980,32.3855
148.0959,32.3913
148.0342,32.5814
148.0333,32.5840
148.0322,32.5866
148.0322,32.5866
147.9441,32.7927
147.9440,32.7937
147.9428,32.7960
147.9402,32.8018
147.9051,32.8840
147.8629,32.9827
147.8616,32.9851
147.8616,32.9851
147.7540,33.1851
147.7536,33.1866
147.7511,33.1907
147.7479,33.1964
147.6575,33.3644
147.5291,33.5589
147.5285,33.5607
147.5244,33.5663
147.5206,33.5718
147.4209,33.7228
147.4187,33.7262
147.3903,33.7618
147.2715,33.9108
147.2706,33.9130
147.2647,33.9196
147.2602,33.9249
147.1501,34.0630
147.1484,34.0651
147.1464,34.0671
146.9831,34.2380
146.9818,34.2405
146.9740,34.2478
146.9690,34.2528
146.8507,34.3765
146.8507,34.3765
146.8488,34.3785
146.8467,34.3803
146.8467,34.3803
146.6664,34.5378
146.6646,34.5406
146.6548,34.5483
146.6492,34.5528
146.5223,34.6637
146.3238,34.8079
146.3216,34.8109
146.3097,34.8185
146.3036,34.8226
146.1716,34.9185
146.0345,35.0004
145.9584,35.0459
145.9555,35.0490
145.9416,35.0562
145.9351,35.0598
145.8018,35.1394
145.8018,35.1395
145.7994,35.1409
145.5728,35.2500
145.5694,35.2531
145.5536,35.2595
145.5466,35.2627
145.4088,35.3290
145.4062,35.3300
145.1705,35.4184
145.1665,35.4214
145.1488,35.4269
145.1414,35.4294
145.0030,35.4813
144.7546,35.5499
144.7499,35.5527
144.7305,35.5568
144.7228,35.5586
144.7073,35.5629
144.5851,35.5966
144.3285,35.6432
144.3232,35.6458
144.3023,35.6482
144.2942,35.6494
144.1585,35.6740
143.8957,35.6977
143.8898,35.7000
143.8676,35.7005
143.8593,35.7010
143.7268,35.7129
143.7240,35.7129
143.4597,35.7129
143.4533,35.7148
143.4299,35.7132
143.4215,35.7129
143.2960,35.7129
143.2932,35.7129
143.0242,35.6887
143.0172,35.6901
142.9931,35.6862
142.9845,35.6851
142.8615,35.6740
142.5926,35.6252
142.5851,35.6260
142.5605,35.6197
142.5519,35.6179
142.4349,35.5966
142.1685,35.5231
142.1606,35.5232
142.1357,35.5144
142.1272,35.5117
142.0170,35.4813
141.7553,35.3831
141.7470,35.3825
141.7222,35.3710
141.7138,35.3675
141.6853,35.3568
141.6112,35.3290
141.3565,35.2063
141.3479,35.2049
141.3235,35.1908
141.3153,35.1865
141.2206,35.1409
140.9752,34.9943
140.9664,34.9920
140.9427,34.9753
140.9348,34.9702
140.8484,34.9185
140.6146,34.7487
140.6057,34.7455
140.5831,34.7262
140.5756,34.7203
140.4977,34.6637
140.2777,34.4715
140.2688,34.4674
140.2475,34.4456
140.2404,34.4389
140.1712,34.3785
139.9672,34.1651
139.9583,34.1600
139.9387,34.1358
139.9321,34.1284
139.8716,34.0651
139.8699,34.0630
139.8699,34.0630
139.6856,33.8318
139.6769,33.8257
139.6591,33.7993
139.6532,33.7912
139.6013,33.7262
139.4352,33.4745
139.4268,33.4674
139.4112,33.4390
139.4060,33.4302
139.3625,33.3644
139.2181,33.0961
139.2101,33.0880
139.1970,33.0577
139.1924,33.0484
139.1584,32.9851
139.1584,32.9851
139.1571,32.9827
139.0361,32.6995
139.0286,32.6905
139.0181,32.6586
139.0144,32.6487
138.9867,32.5840
138.9220,32.3850
121.2905,32.3850
121.2903,32.3885
121.2793,32.5840
121.2705,32.7411
121.2699,32.7445
121.2699,32.7445
121.2113,33.0893
121.2113,33.0893
121.2108,33.0927
121.2098,33.0961
121.2098,33.0961
121.1130,33.4321
121.1130,33.4321
121.1120,33.4355
121.1107,33.4387
121.1107,33.4387
120.9907,33.7284
120.9755,33.7650
120.9739,33.7680
120.8047,34.0741
120.8047,34.0741
120.8030,34.0771
120.5966,34.3680
120.5943,34.3706
120.5943,34.3706
120.4315,34.5528
120.3590,34.6340
120.3277,34.6619
120.1525,34.8185
120.0930,34.8716
119.8021,35.0780
119.4900,35.2505
119.1605,35.3870
118.8177,35.4858
118.4661,35.5455
118.1100,35.5655
117.7539,35.5455
117.4023,35.4858
117.0595,35.3870
116.7300,35.2505
116.4179,35.0780
116.1270,34.8716
115.8610,34.6340
115.6234,34.3680
115.4170,34.0771
115.2445,33.7650
115.1080,33.4355
115.0092,33.0927
114.9495,32.7411
114.9295,32.3850
102.2405,32.3850
102.2403,32.3885
102.2293,32.5840
102.2205,32.7411
102.2199,32.7445
102.2199,32.7445
102.1613,33.0893
102.1613,33.0893
102.1608,33.0927
102.1598,33.0961
102.1598,33.0961
102.0630,33.4321
102.0630,33.4321
102.0620,33.4355
102.0607,33.4387
102.0607,33.4387
101.9407,33.7284
101.9255,33.7650
101.9239,33.7680
101.7547,34.0741
101.7547,34.0741
101.7530,34.0771
101.5466,34.3680
101.5443,34.3706
101.5443,34.3706
101.3815,34.5528
101.3090,34.6340
101.2777,34.6619
101.1025,34.8185
101.0430,34.8716
100.7521,35.0780
100.4400,35.2505
100.1105,35.3870
99.7677,35.4858
99.4161,35.5455
99.0600,35.5655
98.7039,35.5455
98.3523,35.4858
98.0095,35.3870
97.6800,35.2505
97.3679,35.0780
97.0770,34.8716
96.8110,34.6340
96.5734,34.3680
96.3670,34.0771
96.1945,33.7650
96.0580,33.4355
95.9592,33.0927
95.8995,32.7411
95.8795,32.3850
83.1905,32.3850
83.1903,32.3885
83.1793,32.5840
83.1705,32.7411
83.1699,32.7445
83.1699,32.7445
83.1113,33.0893
83.1113,33.0893
83.1108,33.0927
83.1098,33.0961
83.1098,33.0961
83.0130,33.4321
83.0130,33.4321
83.0120,33.4355
83.0107,33.4387
83.0107,33.4387
82.8907,33.7284
82.8755,33.7650
82.8739,33.7680
82.7047,34.0741
82.7047,34.0741
82.7030,34.0771
82.4966,34.3680
82.4943,34.3706
82.4943,34.3706
82.3315,34.5528
82.2590,34.6340
82.2277,34.6619
82.0525,34.8185
81.9930,34.8716
81.7021,35.0780
81.3900,35.2505
81.0605,35.3870
80.7177,35.4858
80.3661,35.5455
80.0100,35.5655
79.6539,35.5455
79.3023,35.4858
78.9595,35.3870
78.6300,35.2505
78.3179,35.0780
78.0270,34.8716
77.7610,34.6340
77.5234,34.3680
77.3170,34.0771
77.1445,33.7650
77.0080,33.4355
76.9092,33.0927
76.8495,32.7411
76.8295,32.3850
64.1405,32.3850
64.1403,32.3885
64.1293,32.5840
64.1205,32.7411
64.1199,32.7445
64.1199,32.7445
64.0613,33.0893
64.0613,33.0893
64.0608,33.0927
64.0598,33.0961
64.0598,33.0961
63.9630,33.4321
63.9630,33.4321
63.9620,33.4355
63.9607,33.4387
63.9607,33.4387
63.8407,33.7284
63.8255,33.7650
63.8239,33.7680
63.6547,34.0741
63.6547,34.0741
63.6530,34.0771
63.4466,34.3680
63.4443,34.3706
63.4443,34.3706
63.2815,34.5528
63.2090,34.6340
63.1777,34.6619
63.0025,34.8185
62.9430,34.8716
62.6521,35.0780
62.3400,35.2505
62.0105,35.3870
61.6677,35.4858
61.3161,35.5455
60.9600,35.5655
60.6039,35.5455
60.2523,35.4858
59.9095,35.3870
59.5800,35.2505
59.2679,35.0780
58.9770,34.8716
58.7110,34.6340
58.4734,34.3680
58.2670,34.0771
58.0945,33.7650
57.9580,33.4355
57.8592,33.0927
57.7995,32.7411
57.7795,32.3850
45.0905,32.3850
45.0903,32.3885
45.0793,32.5840
45.0705,32.7411
45.0699,32.7445
45.0699,32.7445
45.0113,33.0893
45.0113,33.0893
45.0108,33.0927
45.0098,33.0961
45.0098,33.0961
44.9130,33.4321
44.9130,33.4321
44.9120,33.4355
44.9107,33.4387
44.9107,33.4387
44.7907,33.7284
44.7755,33.7650
44.7739,33.7680
44.6047,34.0741
44.6047,34.0741
44.6030,34.0771
44.3966,34.3680
44.3943,34.3706
44.3943,34.3706
44.2315,34.5528
44.1590,34.6340
44.1277,34.6619
43.9525,34.8185
43.8930,34.8716
43.6021,35.0780
43.2900,35.2505
42.9605,35.3870
42.6177,35.4858
42.2661,35.5455
41.9100,35.5655
41.5539,35.5455
41.2023,35.4858
40.8595,35.3870
40.5300,35.2505
40.2179,35.0780
39.9270,34.8716
39.6610,34.6340
39.4234,34.3680
39.2170,34.0771
39.0445,33.7650
38.9080,33.4355
38.8092,33.0927
38.7495,32.7411
38.7295,32.3850
26.0405,32.3850
26.0403,32.3885
26.0293,32.5840
26.0205,32.7411
26.0199,32.7445
26.0199,32.7445
25.9613,33.0893
25.9613,33.0893
25.9608,33.0927
25.9598,33.0961
25.9598,33.0961
25.8630,33.4321
25.8630,33.4321
25.8620,33.4355
25.8607,33.4387
25.8607,33.4387
25.7407,33.7284
25.7255,33.7650
25.7239,33.7680
25.5547,34.0741
25.5547,34.0741
25.5530,34.0771
25.3466,34.3680
25.3443,34.3706
25.3443,34.3706
25.1815,34.5528
25.1090,34.6340
25.0777,34.6619
24.9025,34.8185
24.8430,34.8716
24.5521,35.0780
24.2400,35.2505
23.9105,35.3870
23.5677,35.4858
23.2161,35.5455
22.8600,35.5655
22.5039,35.5455
22.1523,35.4858
21.8095,35.3870
21.4800,35.2505
21.1679,35.0780
20.8770,34.8716
20.6110,34.6340
20.3734,34.3680
20.1670,34.0771
19.9945,33.7650
19.8580,33.4355
19.7592,33.0927
19.6995,32.7411
19.6795,32.3850
19.6995,32.0289
19.7592,31.6773
19.8580,31.3345
19.9945,31.0050
20.1670,30.6929
20.3734,30.4020
20.6110,30.1360
20.7023,30.0545
20.8744,29.9007
20.8744,29.9007
20.8770,29.8984
20.9298,29.8609
21.1404,29.7115
21.1679,29.6920
21.1709,29.6903
21.1709,29.6903
21.4770,29.5211
21.4800,29.5195
21.4832,29.5181
21.4832,29.5181
21.8063,29.3843
21.8063,29.3843
21.8095,29.3830
21.8129,29.3820
21.8129,29.3820
22.1489,29.2852
22.1489,29.2852
22.1523,29.2842
22.1557,29.2837
22.1557,29.2837
22.5005,29.2251
22.5005,29.2251
22.5039,29.2245
22.5074,29.2243
22.5074,29.2243
22.8565,29.2047
22.8600,29.2045
22.8635,29.2047
23.2126,29.2243
23.2126,29.2243
23.2161,29.2245
23.2195,29.2251
23.2195,29.2251
23.5643,29.2837
23.5643,29.2837
23.5677,29.2842
23.5711,29.2852
23.5711,29.2852
23.9071,29.3820
23.9071,29.3820
23.9105,29.3830
23.9137,29.3843
23.9137,29.3843
24.2368,29.5181
24.2368,29.5181
24.2400,29.5195
24.2430,29.5211
24.2430,29.5211
24.5491,29.6903
24.5491,29.6903
24.5521,29.6920
24.5550,29.6940
24.5550,29.6940
24.8402,29.8964
24.8402,29.8964
24.8430,29.8984
24.8456,29.9007
24.8456,29.9007
25.1064,30.1337
25.1064,30.1337
25.1090,30.1360
25.1113,30.1386
25.1113,30.1386
25.3443,30.3994
25.3443,30.3994
25.3466,30.4020
25.3486,30.4048
25.3486,30.4048
25.5269,30.6561
25.5530,30.6929
25.5547,30.6959
25.5547,30.6959
25.7222,30.9991
25.7255,31.0050
25.7269,31.0082
25.7269,31.0082
25.8607,31.3313
25.8607,31.3313
25.8620,31.3345
25.8630,31.3379
25.8630,31.3379
25.9598,31.6739
25.9598,31.6739
25.9608,31.6773
25.9613,31.6807
25.9613,31.6807
26.0199,32.0255
26.0199,32.0255
26.0205,32.0289
26.0405,32.3850
38.7295,32.3850
38.7495,32.0289
38.8092,31.6773
38.9080,31.3345
39.0445,31.0050
39.2170,30.6929
39.4234,30.4020
39.6610,30.1360
39.7523,30.0545
39.9244,29.9007
39.9244,29.9007
39.9270,29.8984
39.9798,29.8609
40.1904,29.7115
40.2179,29.6920
40.2209,29.6903
40.2209,29.6903
40.5270,29.5211
40.5300,29.5195
40.5332,29.5181
40.5332,29.5181
40.8563,29.3843
40.8563,29.3843
40.8595,29.3830
40.8629,29.3820
40.8629,29.3820
41.1989,29.2852
41.1989,29.2852
41.2023,29.2842
41.2057,29.2837
41.2057,29.2837
41.5505,29.2251
41.5505,29.2251
41.5539,29.2245
41.5574,29.2243
41.5574,29.2243
41.9065,29.2047
41.9100,29.2045
41.9135,29.2047
42.2626,29.2243
42.2626,29.2243
42.2661,29.2245
42.2695,29.2251
42.2695,29.2251
42.6143,29.2837
42.6143,29.2837
42.6177,29.2842
42.6211,29.2852
42.6211,29.2852
42.9571,29.3820
42.9571,29.3820
42.9605,29.3830
42.9637,29.3843
42.9637,29.3843
43.2868,29.5181
43.2868,29.5181
43.2900,29.5195
43.2930,29.5211
43.2930,29.5211
43.5991,29.6903
43.5991,29.6903
43.6021,29.6920
43.6050,29.6940
43.6050,29.6940
43.8902,29.8964
43.8902,29.8964
43.8930,29.8984
43.8956,29.9007
43.8956,29.9007
44.1564,30.1337
44.1564,30.1337
44.1590,30.1360
44.1613,30.1386
44.1613,30.1386
44.3943,30.3994
44.3943,30.3994
44.3966,30.4020
44.3986,30.4048
44.3986,30.4048
44.5769,30.6561
44.6030,30.6929
44.6047,30.6959
44.6047,30.6959
44.7722,30.9991
44.7755,31.0050
44.7769,31.0082
44.7769,31.0082
44.9107,31.3313
44.9107,31.3313
44.9120,31.3345
44.9130,31.3379
44.9130,31.3379
45.0098,31.6739
45.0098,31.6739
45.0108,31.6773
45.0113,31.6807
45.0113,31.6807
45.0699,32.0255
45.0699,32.0255
45.0705,32.0289
45.0905,32.3850
57.7795,32.3850
57.7995,32.0289
57.8592,31.6773
57.9580,31.3345
58.0945,31.0050
58.2670,30.6929
58.4734,30.4020
58.7110,30.1360
58.8023,30.0545
58.9744,29.9007
58.9744,29.9007
58.9770,29.8984
59.0298,29.8609
59.2404,29.7115
59.2679,29.6920
59.2709,29.6903
59.2709,29.6903
59.5770,29.5211
59.5800,29.5195
59.5832,29.5181
59.5832,29.5181
59.9063,29.3843
59.9063,29.3843
59.9095,29.3830
59.9129,29.3820
59.9129,29.3820
60.2489,29.2852
60.2489,29.2852
60.2523,29.2842
60.2557,29.2837
60.2557,29.2837
60.6005,29.2251
60.6005,29.2251
60.6039,29.2245
60.6074,29.2243
60.6074,29.2243
60.9565,29.2047
60.9600,29.2045
60.9635,29.2047
61.3126,29.2243
61.3126,29.2243
61.3161,29.2245
61.3195,29.2251
61.3195,29.2251
61.6643,29.2837
61.6643,29.2837
61.6677,29.2842
61.6711,29.2852
61.6711,29.2852
62.0071,29.3820
62.0071,29.3820
62.0105,29.3830
62.0136,29.3843
62.0137,29.3843
62.3368,29.5181
62.3368,29.5181
62.3400,29.5195
62.3430,29.5211
62.3430,29.5211
62.6491,29.6903
62.6491,29.6903
62.6521,29.6920
62.6550,29.6940
62.6550,29.6940
62.9402,29.8964
62.9402,29.8964
62.9430,29.8984
62.9456,29.9007
62.9456,29.9007
63.2064,30.1337
63.2064,30.1337
63.2090,30.1360
63.2113,30.1386
63.2113,30.1386
63.4443,30.3994
63.4443,30.3994
63.4466,30.4020
63.4486,30.4048
63.4486,30.4048
63.6269,30.6561
63.6530,30.6929
63.6547,30.6959
63.6547,30.6959
63.8222,30.9991
63.8255,31.0050
63.8269,31.0082
63.8269,31.0082
63.9607,31.3313
63.9607,31.3313
63.9620,31.3345
63.9630,31.3379
63.9630,31.3379
64.0598,31.6739
64.0598,31.6739
64.0608,31.6773
64.0613,31.6807
64.0613,31.6807
64.1199,32.0255
64.1199,32.0255
64.1205,32.0289
64.1405,32.3850
76.8295,32.3850
76.8495,32.0289
76.9092,31.6773
77.0080,31.3345
77.1445,31.0050
77.3170,30.6929
77.5234,30.4020
77.7610,30.1360
77.8523,30.0545
78.0244,29.9007
78.0244,29.9007
78.0270,29.8984
78.0798,29.8609
78.2904,29.7115
78.3179,29.6920
78.3209,29.6903
78.3209,29.6903
78.6270,29.5211
78.6300,29.5195
78.6332,29.5181
78.6332,29.5181
78.9563,29.3843
78.9563,29.3843
78.9595,29.3830
78.9629,29.3820
78.9629,29.3820
79.2989,29.2852
79.2989,29.2852
79.3023,29.2842
79.3057,29.2837
79.3057,29.2837
79.6505,29.2251
79.6505,29.2251
79.6539,29.2245
79.6574,29.2243
79.6574,29.2243
80.0065,29.2047
80.0100,29.2045
80.0135,29.2047
80.3626,29.2243
80.3626,29.2243
80.3661,29.2245
80.3695,29.2251
80.3695,29.2251
80.7143,29.2837
80.7143,29.2837
80.7177,29.2842
80.7211,29.2852
80.7211,29.2852
81.0571,29.3820
81.0571,29.3820
81.0605,29.3830
81.0636,29.3843
81.0637,29.3843
81.3868,29.5181
81.3868,29.5181
81.3900,29.5195
81.3930,29.5211
81.3930,29.5211
81.6991,29.6903
81.6991,29.6903
81.7021,29.6920
81.7050,29.6940
81.7050,29.6940
81.9902,29.8964
81.9902,29.8964
81.9930,29.8984
81.9956,29.9007
81.9956,29.9007
82.2564,30.1337
82.2564,30.1337
82.2590,30.1360
82.2613,30.1386
82.2613,30.1386
82.4943,30.3994
82.4943,30.3994
82.4966,30.4020
82.4986,30.4048
82.4986,30.4048
82.6769,30.6561
82.7030,30.6929
82.7047,30.6959
82.7047,30.6959
82.8722,30.9991
82.8755,31.0050
82.8769,31.0082
82.8769,31.0082
83.0107,31.3313
83.0107,31.3313
83.0120,31.3345
83.0130,31.3379
83.0130,31.3379
83.1098,31.6739
83.1098,31.6739
83.1108,31.6773
83.1113,31.6807
83.1113,31.6807
83.1699,32.0255
83.1699,32.0255
83.1705,32.0289
83.1905,32.3850
95.8795,32.3850
95.8995,32.0289
95.9592,31.6773
96.0580,31.3345
96.1945,31.0050
96.3670,30.6929
96.5734,30.4020
96.8110,30.1360
96.9023,30.0545
97.0744,29.9007
97.0744,29.9007
97.0770,29.8984
97.1298,29.8609
97.3404,29.7115
97.3679,29.6920
97.3709,29.6903
97.3709,29.6903
97.6770,29.5211
97.6800,29.5195
97.6832,29.5181
97.6832,29.5181
98.0063,29.3843
98.0063,29.3843
98.0095,29.3830
98.0129,29.3820
98.0129,29.3820
98.3489,29.2852
98.3489,29.2852
98.3523,29.2842
98.3557,29.2837
98.3557,29.2837
98.7005,29.2251
98.7005,29.2251
98.7039,29.2245
98.7074,29.2243
98.7074,29.2243
99.0565,29.2047
99.0600,29.2045
99.0635,29.2047
99.4126,29.2243
99.4126,29.2243
99.4161,29.2245
99.4195,29.2251
99.4195,29.2251
99.7643,29.2837
99.7643,29.2837
99.7677,29.2842
99.7711,29.2852
99.7711,29.2852
100.1071,29.3820
100.1071,29.3820
100.1105,29.3830
100.1136,29.3843
100.1137,29.3843
100.4368,29.5181
100.4368,29.5181
100.4400,29.5195
100.4430,29.5211
100.4430,29.5211
100.7491,29.6903
100.7491,29.6903
100.7521,29.6920
100.7550,29.6940
100.7550,29.6940
101.0402,29.8964
101.0402,29.8964
101.0430,29.8984
101.0456,29.9007
101.0456,29.9007
101.3064,30.1337
101.3064,30.1337
101.3090,30.1360
101.3113,30.1386
101.3113,30.1386
101.5443,30.3994
101.5443,30.3994
101.5466,30.4020
101.5486,30.4048
101.5486,30.4048
101.7269,30.6561
101.7530,30.6929
101.7547,30.6959
101.7547,30.6959
101.9222,30.9991
101.9255,31.0050
101.9269,31.0082
101.9269,31.0082
102.0607,31.3313
102.0607,31.3313
102.0620,31.3345
102.0630,31.3379
102.0630,31.3379
102.1598,31.6739
102.1598,31.6739
102.1608,31.6773
102.1613,31.6807
102.1613,31.6807
102.2199,32.0255
102.2199,32.0255
102.2205,32.0289
102.2405,32.3850
114.9295,32.3850
114.9495,32.0289
115.0092,31.6773
115.1080,31.3345
115.2445,31.0050
115.4170,30.6929
115.6234,30.4020
115.8610,30.1360
115.9523,30.0545
116.1244,29.9007
116.1244,29.9007
116.1270,29.8984
116.1798,29.8609
116.3904,29.7115
116.4179,29.6920
116.4209,29.6903
116.4209,29.6903
116.7270,29.5211
116.7300,29.5195
116.7332,29.5181
116.7332,29.5181
117.0563,29.3843
117.0563,29.3843
117.0595,29.3830
117.0629,29.3820
117.0629,29.3820
117.3989,29.2852
117.3989,29.2852
117.4023,29.2842
117.4057,29.2837
117.4057,29.2837
117.7505,29.2251
117.7505,29.2251
117.7539,29.2245
117.7574,29.2243
117.7574,29.2243
118.1065,29.2047
118.1100,29.2045
118.1135,29.2047
118.4626,29.2243
118.4626,29.2243
118.4661,29.2245
118.4695,29.2251
118.4695,29.2251
118.8143,29.2837
118.8143,29.2837
118.8177,29.2842
118.8211,29.2852
118.8211,29.2852
119.1571,29.3820
119.1571,29.3820
119.1605,29.3830
119.1636,29.3843
119.1637,29.3843
119.4868,29.5181
119.4868,29.5181
119.4900,29.5195
119.4930,29.5211
119.4930,29.5211
119.7991,29.6903
119.7991,29.6903
119.8021,29.6920
119.8050,29.6940
119.8050,29.6940
120.0902,29.8964
120.0902,29.8964
120.0930,29.8984
120.0956,29.9007
120.0956,29.9007
120.3564,30.1337
120.3564,30.1337
120.3590,30.1360
120.3613,30.1386
120.3613,30.1386
120.5943,30.3994
120.5943,30.3994
120.5966,30.4020
120.5986,30.4048
120.5986,30.4048
120.7769,30.6561
120.8030,30.6929
120.8047,30.6959
120.8047,30.6959
120.9722,30.9991
120.9755,31.0050
120.9769,31.0082
120.9769,31.0082
121.1107,31.3313
121.1107,31.3313
121.1120,31.3345
121.1130,31.3379
121.1130,31.3379
121.2098,31.6739
121.2098,31.6739
121.2108,31.6773
121.2113,31.6807
121.2113,31.6807
121.2699,32.0255
121.2699,32.0255
121.2705,32.0289
121.2905,32.3850
138.9220,32.3850
138.8906,32.2882
138.8838,32.2782
138.8761,32.2450
138.8732,32.2347
138.8527,32.1717
138.7828,31.8654
138.7767,31.8545
138.7720,31.8202
138.7701,31.8095
138.7563,31.7491
138.6981,31.3195
138.6786,30.8864
138.6981,30.4533
138.7563,30.0237
138.7701,29.9633
138.7720,29.9526
138.7762,29.9225
138.7828,29.9074
138.8021,29.8232
138.8527,29.6011
138.8732,29.5381
138.8761,29.5278
138.8828,29.4986
138.8906,29.4846
138.9867,29.1888
139.0144,29.1241
139.0181,29.1142
139.0274,29.0861
139.0361,29.0733
139.1571,28.7901
139.1924,28.7244
139.1970,28.7151
139.2086,28.6883
139.2181,28.6767
139.2721,28.5764
139.3625,28.4084
139.4060,28.3426
139.4112,28.3338
139.4250,28.3086
139.4352,28.2983
139.6013,28.0466
139.6532,27.9816
139.6591,27.9735
139.6749,27.9500
139.6856,27.9410
139.8699,27.7098
139.8699,27.7098
139.8716,27.7077
139.9321,27.6444
139.9386,27.6370
139.9561,27.6155
139.9672,27.6077
140.1693,27.3963
140.1693,27.3963
140.1712,27.3943
140.2404,27.3339
140.2475,27.3272
140.2664,27.3078
140.2777,27.3013
140.4956,27.1109
140.4977,27.1091
140.5755,27.0525
140.5831,27.0466
140.6033,27.0294
140.6146,27.0241
140.7426,26.9311
140.8462,26.8559
140.8462,26.8559
140.8484,26.8543
140.9348,26.8026
140.9427,26.7975
140.9639,26.7826
140.9752,26.7785
141.2182,26.6334
141.2182,26.6333
141.2206,26.6319
141.2231,26.6307
141.2231,26.6307
141.3153,26.5863
141.3235,26.5820
141.3453,26.5694
141.3565,26.5665
141.6086,26.4450
141.6087,26.4450
141.6112,26.4438
141.6667,26.4230
141.7138,26.4053
141.7222,26.4018
141.7445,26.3915
141.7553,26.3897
142.0144,26.2925
142.0144,26.2925
142.0170,26.2915
142.0197,26.2908
142.0197,26.2908
142.1271,26.2611
142.1357,26.2584
142.1580,26.2505
142.1685,26.2497
142.4142,26.1819
142.4322,26.1769
142.4322,26.1769
142.4349,26.1762
142.4377,26.1757
142.4377,26.1757
142.5518,26.1549
142.5604,26.1531
142.5827,26.1474
142.5926,26.1476
142.8587,26.0993
142.8587,26.0993
142.8615,26.0988
142.8872,26.0964
142.9845,26.0877
142.9931,26.0866
143.0148,26.0831
143.0242,26.0841
143.2905,26.0601
143.2905,26.0601
143.2932,26.0599
143.4215,26.0599
143.4300,26.0596
143.4510,26.0582
143.4597,26.0599
143.7268,26.0599
143.7295,26.0601
143.7295,26.0601
143.8593,26.0718
143.8676,26.0723
143.8877,26.0728
143.8957,26.0751
144.1430,26.0974
144.1585,26.0988
144.1613,26.0993
144.1613,26.0993
144.2942,26.1234
144.3023,26.1246
144.3213,26.1267
144.3285,26.1296
144.5823,26.1757
144.5824,26.1757
144.5851,26.1762
144.5878,26.1769
144.5878,26.1769
144.7227,26.2142
144.7305,26.2160
144.7481,26.2197
144.7546,26.2229
145.0003,26.2908
145.0003,26.2908
145.0030,26.2915
145.0056,26.2925
145.0056,26.2925
145.1413,26.3434
145.1487,26.3459
145.1649,26.3509
145.1705,26.3544
145.4062,26.4428
145.4063,26.4429
145.4088,26.4438
145.4113,26.4450
145.4114,26.4450
145.5465,26.5101
145.5535,26.5132
145.5680,26.5191
145.5728,26.5228
145.7969,26.6307
145.7969,26.6307
145.7994,26.6319
145.8018,26.6333
145.8018,26.6334
145.9350,26.7129
145.9416,26.7166
145.9543,26.7232
145.9583,26.7269
146.1692,26.8529
146.1692,26.8529
146.1716,26.8543
146.1738,26.8559
146.1738,26.8559
146.3036,26.9502
146.3097,26.9543
146.3205,26.9613
146.3238,26.9649
146.4445,27.0525
146.5223,27.1091
146.5244,27.1109
146.5244,27.1109
146.6492,27.2199
146.6547,27.2245
146.6637,27.2315
146.6664,27.2350
146.8488,27.3943
146.8507,27.3963
146.8507,27.3963
146.9690,27.5200
146.9739,27.5249
146.9811,27.5316
146.9831,27.5348
147.1464,27.7056
147.1465,27.7057
147.1484,27.7077
147.1501,27.7098
147.1501,27.7098
147.2602,27.8479
147.2646,27.8532
147.2700,27.8592
147.2715,27.8620
147.4169,28.0444
147.4169,28.0444
147.4187,28.0466
147.4202,28.0489
147.4202,28.0489
147.5206,28.2010
147.5244,28.2065
147.5282,28.2115
147.5291,28.2139
147.6559,28.4061
147.6560,28.4061
147.6575,28.4084
147.6588,28.4108
147.6588,28.4108
147.7479,28.5764
147.7511,28.5821
147.7534,28.5858
147.7539,28.5877
147.8616,28.7877
147.8616,28.7877
147.8629,28.7901
147.8640,28.7927
147.8640,28.7927
147.9402,28.9710
147.9428,28.9767
147.9438,28.9788
147.9441,28.9801
148.0333,29.1888
148.0342,29.1914
148.0342,29.1914
148.0959,29.3815
148.0980,29.3873
148.0980,29.3874
148.0981,29.3882
148.1664,29.5984
148.1673,29.6011
148.1679,29.6038
148.1679,29.6038
148.2137,29.8047
148.2146,29.8080
148.2146,29.8084
148.2630,30.0205
148.2637,30.0237
148.2641,30.0265
148.2641,30.0265
148.2926,30.2369
148.2927,30.2374
148.2927,30.2375
148.3215,30.4506
148.3215,30.4506
148.3219,30.4533
148.3220,30.4561
148.3220,30.4561
148.3409,30.8756
148.3414,30.8864
161.0839,30.8864
161.0422,30.7987
160.8273,30.2538
160.6501,29.6955
160.5114,29.1264
160.4119,28.5492
160.3520,27.9666
160.3320,27.3812
160.3520,26.7958
160.4119,26.2132
160.5114,25.6360
160.6501,25.0669
160.8273,24.5086
161.0422,23.9637
161.2937,23.4348
161.5808,22.9242
161.5819,22.9224
161.5820,22.9224
161.8998,22.4379
161.9020,22.4344
162.2559,21.9677
162.6373,21.5304
162.6395,21.5279
162.6395,21.5278
162.6409,21.5263
163.0551,21.1121
163.0566,21.1107
163.0567,21.1107
163.4291,20.7859
163.4965,20.7271
163.9568,20.3781
163.9615,20.3745
163.9616,20.3745
163.9632,20.3732
164.0950,20.2868
164.4512,20.0532
164.4513,20.0531
164.4530,20.0520
164.9636,19.7649
164.9655,19.7640
164.9655,19.7640
165.4906,19.5143
165.4906,19.5143
165.4925,19.5134
165.4945,19.5126
165.4945,19.5126
166.0354,19.2993
166.0355,19.2993
166.0374,19.2985
166.0394,19.2979
166.0394,19.2978
166.5937,19.1219
166.5937,19.1219
166.5957,19.1213
167.1648,18.9826
167.1668,18.9823
167.1668,18.9823
167.7399,18.8835
167.7399,18.8835
167.7420,18.8831
167.7441,18.8829
167.7441,18.8829
168.3225,18.8234
168.3225,18.8234
168.3246,18.8232
168.3267,18.8231
168.3267,18.8231
168.9079,18.8033
168.9100,18.8032
168.9121,18.8033
169.4933,18.8231
169.4933,18.8231
169.4954,18.8232
169.4975,18.8234
169.4975,18.8234
170.0759,18.8829
170.0759,18.8829
170.0780,18.8831
170.0801,18.8835
170.0801,18.8835
170.6532,18.9823
170.6532,18.9823
170.6552,18.9826
170.6573,18.9831
170.6573,18.9831
171.2223,19.1208
171.2223,19.1208
171.2243,19.1213
171.2263,19.1219
171.2263,19.1219
171.7806,19.2978
171.7806,19.2979
171.7826,19.2985
171.7845,19.2993
171.7846,19.2993
172.3255,19.5126
172.3255,19.5126
172.3275,19.5134
172.3294,19.5143
172.3294,19.5143
172.8545,19.7640
172.8545,19.7640
172.8564,19.7649
172.8583,19.7660
172.8583,19.7660
173.3651,20.0509
173.3651,20.0510
173.3670,20.0520
173.3687,20.0531
173.3688,20.0532
173.8550,20.3721
173.8550,20.3721
173.8568,20.3732
173.8584,20.3745
173.8585,20.3745
174.3218,20.7259
174.3218,20.7259
174.3235,20.7271
174.3251,20.7285
174.3251,20.7285
174.7633,21.1107
174.7634,21.1107
174.7649,21.1121
174.7664,21.1136
174.7664,21.1136
175.1776,21.5248
175.1776,21.5248
175.1791,21.5263
175.1805,21.5278
175.1805,21.5279
175.5627,21.9661
175.5627,21.9661
175.5641,21.9677
175.5653,21.9694
175.5653,21.9694
175.9167,22.4327
175.9167,22.4328
175.9180,22.4344
175.9191,22.4362
175.9191,22.4362
176.2380,22.9224
176.2381,22.9225
176.2392,22.9242
176.2402,22.9261
176.2403,22.9261
176.5252,23.4329
176.5252,23.4329
176.5263,23.4348
176.5272,23.4367
176.5272,23.4367
176.7769,23.9618
176.7769,23.9618
176.7778,23.9637
176.7786,23.9657
176.7786,23.9657
176.9919,24.5066
176.9920,24.5067
176.9927,24.5086
176.9933,24.5106
176.9934,24.5106
177.1693,25.0649
177.1693,25.0649
177.1699,25.0669
177.3086,25.6360
177.3089,25.6380
177.3089,25.6380
177.4019,26.1769
177.4081,26.2132
177.4083,26.2153
177.4083,26.2153
177.4678,26.7937
177.4678,26.7937
177.4680,26.7958
177.4681,26.7979
177.4681,26.7979
177.4829,27.2315
177.4880,27.3812
185.7320,27.3812
185.7520,26.7958
185.8119,26.2132
185.9114,25.6360
186.0501,25.0669
186.2273,24.5086
186.4422,23.9637
186.6937,23.4348
186.9808,22.9242
186.9819,22.9224
186.9820,22.9224
187.2998,22.4379
187.3020,22.4344
187.6559,21.9677
188.0373,21.5304
188.0395,21.5279
188.0395,21.5278
188.0409,21.5263
188.4551,21.1121
188.4566,21.1107
188.4567,21.1107
188.8291,20.7859
188.8965,20.7271
189.3568,20.3781
189.3615,20.3745
189.3616,20.3745
189.3632,20.3732
189.4950,20.2868
189.8512,20.0532
189.8513,20.0531
189.8530,20.0520
190.3636,19.7649
190.3655,19.7640
190.3655,19.7640
190.8906,19.5143
190.8906,19.5143
190.8925,19.5134
190.8945,19.5126
190.8945,19.5126
191.4354,19.2993
191.4355,19.2993
191.4374,19.2985
191.4394,19.2979
191.4394,19.2978
191.9937,19.1219
191.9937,19.1219
191.9957,19.1213
192.5648,18.9826
192.5668,18.9823
192.5668,18.9823
193.1399,18.8835
193.1399,18.8835
193.1420,18.8831
193.1441,18.8829
193.1441,18.8829
193.7225,18.8234
193.7225,18.8234
193.7246,18.8232
193.7267,18.8231
193.7267,18.8231
194.3079,18.8033
194.3100,18.8032
194.3121,18.8033
194.8933,18.8231
194.8933,18.8231
194.8954,18.8232
194.8975,18.8234
194.8975,18.8234
195.4759,18.8829
195.4759,18.8829
195.4780,18.8831
195.4801,18.8835
195.4801,18.8835
196.0532,18.9823
196.0532,18.9823
196.0552,18.9826
196.0573,18.9831
196.0573,18.9831
196.6223,19.1208
196.6223,19.1208
196.6243,19.1213
196.6263,19.1219
196.6263,19.1219
197.1806,19.2978
197.1806,19.2979
197.1826,19.2985
197.1845,19.2993
197.1846,19.2993
197.7255,19.5126
197.7255,19.5126
197.7275,19.5134
197.7294,19.5143
197.7294,19.5143
198.2545,19.7640
198.2545,19.7640
198.2564,19.7649
198.2583,19.7660
198.2583,19.7660
198.7651,20.0509
198.7651,20.0510
198.7670,20.0520
198.7687,20.0531
198.7688,20.0532
199.2550,20.3721
199.2550,20.3721
199.2568,20.3732
199.2584,20.3745
199.2585,20.3745
199.7218,20.7259
199.7218,20.7259
199.7235,20.7271
199.7251,20.7285
199.7251,20.7285
200.1633,21.1107
200.1634,21.1107
200.1649,21.1121
200.1664,21.1136
200.1664,21.1136
200.5776,21.5248
200.5776,21.5248
200.5791,21.5263
200.5805,21.5278
200.5805,21.5279
200.9627,21.9661
200.9627,21.9661
200.9641,21.9677
200.9653,21.9694
200.9653,21.9694
201.3167,22.4327
201.3167,22.4328
201.3180,22.4344
201.3191,22.4362
201.3191,22.4362
201.6380,22.9224
201.6381,22.9225
201.6392,22.9242
201.6402,22.9261
201.6403,22.9261
201.9252,23.4329
201.9252,23.4329
201.9263,23.4348
201.9272,23.4367
201.9272,23.4367
202.1769,23.9618
202.1769,23.9618
202.1778,23.9637
202.1786,23.9657
202.1786,23.9657
202.3919,24.5066
202.3919,24.5067
202.3927,24.5086
202.3933,24.5106
202.3934,24.5106
202.5693,25.0649
202.5693,25.0649
202.5699,25.0669
202.7086,25.6360
202.7089,25.6380
202.7089,25.6380
202.8019,26.1769
202.8081,26.2132
202.8083,26.2153
202.8083,26.2153
202.8678,26.7937
202.8678,26.7937
202.8680,26.7958
202.8681,26.7979
202.8681,26.7979
202.8829,27.2315
202.8880,27.3812
223.0115,27.3812
223.0115,17.8585
223.0115,17.8539
223.0016,17.5899
222.9933,17.3796
222.9926,17.3707
222.9641,17.1188
222.9376,16.8947
222.9363,16.8863
222.8895,16.6399
222.8448,16.4156
222.8429,16.4077
222.7781,16.1666
222.7155,15.9449
222.7132,15.9377
222.6307,15.7025
222.5505,15.4857
222.5478,15.4791
222.4484,15.2520
222.4475,15.2499
222.3507,15.0405
222.3477,15.0346
222.2317,14.8158
222.2304,14.8133
222.1173,14.6120
222.1142,14.6067
221.9822,14.3974
221.9804,14.3946
221.8518,14.2027
221.8485,14.1980
221.7013,13.9993
221.6990,13.9963
221.5556,13.8150
221.5523,13.8110
221.3906,13.6239
221.3878,13.6207
221.2305,13.4512
221.2273,13.4478
221.0521,13.2733
221.0486,13.2700
220.8786,13.1135
220.8754,13.1107
220.6876,12.9498
220.6836,12.9465
220.5017,12.8038
220.4987,12.8015
220.2994,12.6551
220.2947,12.6519
220.1023,12.5240
220.0995,12.5222
219.8896,12.3911
219.8843,12.3880
219.6825,12.2757
219.6801,12.2744
219.4608,12.1592
219.4549,12.1563
219.2452,12.0604
219.2430,12.0594
219.0155,11.9609
219.0089,11.9583
218.7918,11.8790
218.5562,11.7974
218.5490,11.7951
218.3272,11.7334
218.0857,11.6695
218.0779,11.6677
217.8534,11.6239
217.6068,11.5781
217.5983,11.5768
217.3742,11.5512
217.1222,11.5237
217.1132,11.5231
216.9031,11.5156
216.6389,11.5068
216.6343,11.5067
216.5868,11.5069
216.5849,11.5067
16.5123,11.5067
Z" /> 
</g>
</g>
</g>
<g style="fill:#FFFFFF; fill-opacity:1.0000; 
stroke:#FFFFFF; stroke-width:0.0000; stroke-opacity:1; 
stroke-linecap:round; stroke-linejoin:round;">
<circle cx="215.3150" cy="33.0200" r="0.3000" /> 
</g>
<g style="fill:#FFFFFF; fill-opacity:1.0000; 
stroke:#FFFFFF; stroke-width:0.0212; stroke-opacity:1; 
stroke-linecap:round; stroke-linejoin:round;">
</g>
<g style="fill:#FFFFFF; fill-opacity:1.0000; 
stroke:#FFFFFF; stroke-width:0.0000; stroke-opacity:1; 
stroke-linecap:round; stroke-linejoin:round;">
<circle cx="214.3704" cy="30.7396" r="0.3000" /> 
</g>
<g style="fill:#FFFFFF; fill-opacity:1.0000; 
stroke:#FFFFFF; stroke-width:0.0212; stroke-opacity:1; 
stroke-linecap:round; stroke-linejoin:round;">
</g>
<g style="fill:#FFFFFF; fill-opacity:1.0000; 
stroke:#FFFFFF; stroke-width:0.0000; stroke-opacity:1; 
stroke-linecap:round; stroke-linejoin:round;">
<circle cx="214.3704" cy="35.3004" r="0.3000" /> 
</g>
<g style="fill:#FFFFFF; fill-opacity:1.0000; 
stroke:#FFFFFF; stroke-width:0.0212; stroke-opacity:1; 
stroke-linecap:round; stroke-linejoin:round;">
</g>
<g style="fill:#FFFFFF; fill-opacity:1.0000; 
stroke:#FFFFFF; stroke-width:0.0000; stroke-opacity:1; 
stroke-linecap:round; stroke-linejoin:round;">
<circle cx="212.0900" cy="29.7950" r="0.3000" /> 
</g>
<g style="fill:#FFFFFF; fill-opacity:1.0000; 
stroke:#FFFFFF; stroke-width:0.0212; stroke-opacity:1; 
stroke-linecap:round; stroke-linejoin:round;">
</g>
<g style="fill:#FFFFFF; fill-opacity:1.0000; 
stroke:#FFFFFF; stroke-width:0.0000; stroke-opacity:1; 
stroke-linecap:round; stroke-linejoin:round;">
<circle cx="212.0900" cy="33.0200" r="2.1500" /> 
</g>
<g style="fill:#FFFFFF; fill-opacity:1.0000; 
stroke:#FFFFFF; stroke-width:0.0212; stroke-opacity:1; 
stroke-linecap:round; stroke-linejoin:round;">
</g>
<g style="fill:#FFFFFF; fill-opacity:1.0000; 
stroke:#FFFFFF; stroke-width:0.0000; stroke-opacity:1; 
stroke-linecap:round; stroke-linejoin:round;">
<circle cx="212.0900" cy="36.2450" r="0.3000" /> 
</g>
<g style="fill:#FFFFFF; fill-opacity:1.0000; 
stroke:#FFFFFF; stroke-width:0.0212; stroke-opacity:1; 
stroke-linecap:round; stroke-linejoin:round;">
</g>
<g style="fill:#FFFFFF; fill-opacity:1.0000; 
stroke:#FFFFFF; stroke-width:0.0000; stroke-opacity:1; 
stroke-linecap:round; stroke-linejoin:round;">
<circle cx="209.8096" cy="30.7396" r="0.3000" /> 
</g>
<g style="fill:#FFFFFF; fill-opacity:1.0000; 
stroke:#FFFFFF; stroke-width:0.0212; stroke-opacity:1; 
stroke-linecap:round; stroke-linejoin:round;">
</g>
<g style="fill:#FFFFFF; fill-opacity:1.0000; 
stroke:#FFFFFF; stroke-width:0.0000; stroke-opacity:1; 
stroke-linecap:round; stroke-linejoin:round;">
<circle cx="209.8096" cy="35.3004" r="0.3000" /> 
</g>
<g style="fill:#FFFFFF; fill-opacity:1.0000; 
stroke:#FFFFFF; stroke-width:0.0212; stroke-opacity:1; 
stroke-linecap:round; stroke-linejoin:round;">
</g>
<g style="fill:#FFFFFF; fill-opacity:1.0000; 
stroke:#FFFFFF; stroke-width:0.0000; stroke-opacity:1; 
stroke-linecap:round; stroke-linejoin:round;">
<circle cx="208.8650" cy="33.0200" r="0.3000" /> 
</g>
<g style="fill:#FFFFFF; fill-opacity:1.0000; 
stroke:#FFFFFF; stroke-width:0.0212; stroke-opacity:1; 
stroke-linecap:round; stroke-linejoin:round;">
</g>
<g style="fill:#000000; fill-opacity:1.0000; 
stroke:#000000; stroke-width:0.0212; stroke-opacity:1; 
stroke-linecap:round; stroke-linejoin:round;">
</g>
<g style="fill:#D0D2CD; fill-opacity:1.0000; 
stroke:#D0D2CD; stroke-width:0.0212; stroke-opacity:1; 
stroke-linecap:round; stroke-linejoin:round;">
</g>
<g style="fill:#D0D2CD; fill-opacity:1.0000; 
stroke:#D0D2CD; stroke-width:0.1000; stroke-opacity:1; 
stroke-linecap:round; stroke-linejoin:round;">
</g>
<g style="fill:#D0D2CD; fill-opacity:0.0; 
stroke:#D0D2CD; stroke-width:0.1000; stroke-opacity:1; 
stroke-linecap:round; stroke-linejoin:round;">
<path d="M223.0120 36.8807
L223.0120 17.8562
" />
<circle cx="143.5100" cy="30.8864" r="4.8260" /> 
<circle cx="99.0600" cy="32.3850" r="3.1750" /> 
<path d="M10.1600 36.9062 A6.3501 6.3501 0.0 0 0 16.5355 43.2562" />
<path d="M10.1600 17.8817
L10.1600 36.9062
" />
<path d="M16.5355 43.2562
L216.6620 43.2562
" />
<circle cx="194.3100" cy="27.3812" r="8.5725" /> 
<circle cx="22.8600" cy="32.3850" r="3.1750" /> 
<circle cx="80.0100" cy="32.3850" r="3.1750" /> 
<circle cx="118.1100" cy="32.3850" r="3.1750" /> 
<circle cx="41.9100" cy="32.3850" r="3.1750" /> 
<path d="M223.0120 17.8562 A6.3500 6.3500 0.0 0 0 216.6366 11.5062" />
<circle cx="168.9100" cy="27.3812" r="8.5725" /> 
<path d="M216.6366 11.5062
L16.5100 11.5062
" />
<path d="M216.6620 43.2562 A6.3501 6.3501 0.0 0 0 223.0120 36.8807" />
<path d="M16.5100 11.5062 A6.3501 6.3501 0.0 0 0 10.1600 17.8817" />
<circle cx="60.9600" cy="32.3850" r="3.1750" /> 
<g >
</g>
<g >
</g>
<g >
</g>
<g >
</g>
</g> 
</svg>
